<?xml version="1.0" encoding="UTF-8" standalone="no"?>
<!-- Uploaded to: SVG Repo, www.svgrepo.com, Generator: SVG Repo Mixer Tools -->

<svg
   fill="#000000"
   version="1.1"
   id="Capa_1"
   width="200"
   height="200"
   viewBox="0 0 7.8392501 7.83925"
   xml:space="preserve"
   sodipodi:docname="default-icon.svg"
   inkscape:version="1.3.2 (091e20e, 2023-11-25)"
   xmlns:inkscape="http://www.inkscape.org/namespaces/inkscape"
   xmlns:sodipodi="http://sodipodi.sourceforge.net/DTD/sodipodi-0.dtd"
   xmlns:xlink="http://www.w3.org/1999/xlink"
   xmlns="http://www.w3.org/2000/svg"
   xmlns:svg="http://www.w3.org/2000/svg"><defs
   id="defs1"><linearGradient
     inkscape:collect="always"
     xlink:href="#swatch5"
     id="linearGradient8"
     x1="5.0000057"
     y1="52.502884"
     x2="94.999596"
     y2="52.502884"
     gradientUnits="userSpaceOnUse" /><linearGradient
     id="swatch5"
     inkscape:swatch="solid"><stop
       style="stop-color:#000000;stop-opacity:1;"
       offset="0"
       id="stop5" /></linearGradient><linearGradient
     inkscape:collect="always"
     xlink:href="#swatch5"
     id="linearGradient9"
     gradientUnits="userSpaceOnUse"
     x1="5.0000057"
     y1="52.502884"
     x2="94.999596"
     y2="52.502884"
     gradientTransform="matrix(0.08591089,0,0,0.06997213,-0.36827158,0.32887164)" /><linearGradient
     inkscape:collect="always"
     xlink:href="#swatch5"
     id="linearGradient5"
     gradientUnits="userSpaceOnUse"
     gradientTransform="matrix(0.08760877,0,0,0.06789247,-0.48945998,0.47375684)"
     x1="5.0000057"
     y1="52.502884"
     x2="94.999596"
     y2="52.502884" /><linearGradient
     inkscape:collect="always"
     xlink:href="#swatch5"
     id="linearGradient1"
     gradientUnits="userSpaceOnUse"
     x1="5.0000057"
     y1="52.502884"
     x2="94.999596"
     y2="52.502884" /></defs><sodipodi:namedview
   id="namedview1"
   pagecolor="#ffffff"
   bordercolor="#000000"
   borderopacity="0.25"
   inkscape:showpageshadow="2"
   inkscape:pageopacity="0.0"
   inkscape:pagecheckerboard="0"
   inkscape:deskcolor="#d1d1d1"
   inkscape:zoom="1.6424654"
   inkscape:cx="321.77237"
   inkscape:cy="140.33781"
   inkscape:window-width="2048"
   inkscape:window-height="1124"
   inkscape:window-x="0"
   inkscape:window-y="28"
   inkscape:window-maximized="0"
   inkscape:current-layer="Capa_1" />
<path
   style="fill:#019a88;fill-opacity:0.984064;stroke:url(#linearGradient5);stroke-width:0.0771211;stroke-dasharray:none"
   d="m 7.0679098,2.5976863 v 6.8e-6 C 6.9589531,2.4788168 6.8100087,2.3789677 6.6373039,2.2959383 L 6.6119159,2.2833913 C 5.735385,1.8640303 4.6347076,1.8155535 4.6347076,1.8155535 c 0,0 -1.2692745,-0.101199 -2.4532754,0.014302 0.3765676,-0.02706 1.5616332,-0.022074 2.7253303,0.9326266 1.3739696,1.1272061 -0.024384,1.8046783 -0.9564967,1.6830365 1.1843315,0.1777173 2.5049034,0.1059318 3.1084376,-0.8239852 0.2741602,-0.4224262 0.2403986,-0.7440546 0.0396,-0.988332"
   id="path5" /><g
   id="SvgjsG1240"
   transform="matrix(0.09205631,0,0,0.0662228,-0.62753688,0.48562754)"
   fill="#000000"
   class="fill-primary"
   style="fill:#019a4f;fill-opacity:0.984064;stroke:url(#linearGradient8);stroke-width:0.999973;stroke-dasharray:none"
   inkscape:label="SvgjsG1240"><path
     d="m 23.667175,48.459167 c -0.392395,-0.591186 -1.619323,-3.063964 2.03595,-6.926147 4.111389,-4.344116 14.407898,-9.137695 26.769775,-7.927734 0,0 5.071656,0.347473 7.352417,3.18927 C 59.396118,36.223022 58.933533,35.643066 58.43335,35.054382 46.647217,21.182617 34.644714,21.110046 30.830749,21.503296 c -0.415222,0.05811 -0.829284,0.119995 -1.241943,0.185852 -3.144653,0.501892 -6.195923,1.234192 -8.901916,2.281921 -1.589966,0.662903 -2.934449,1.458985 -3.930359,2.412842 -6.71228,6.428833 -0.669068,15.976685 6.910644,22.075256 z"
     id="path2"
     style="display:inline;fill:#019a88;fill-opacity:0.984314;stroke:url(#linearGradient1);stroke-width:0.999973;stroke-dasharray:none" /></g><g
   id="g1"
   transform="matrix(0.27678388,0,0,0.24811293,-0.38586734,0.07159283)"
   style="fill:#ffffff;fill-opacity:0.98406398;stroke:#000000;stroke-opacity:1;stroke-width:0.2991434;stroke-dasharray:none">
	<path
   d="m 15.255,0 c 5.424,0 10.764,2.498 10.764,8.473 0,5.51 -6.314,7.629 -7.67,9.62 -1.018,1.481 -0.678,3.562 -3.475,3.562 -1.822,0 -2.712,-1.482 -2.712,-2.838 0,-5.046 7.414,-6.188 7.414,-10.343 0,-2.287 -1.522,-3.643 -4.066,-3.643 -5.424,0 -3.306,5.592 -7.414,5.592 C 6.613,10.423 5.34,9.533 5.34,7.839 5.339,3.683 10.084,0 15.255,0 Z m -0.211,24.406 c 1.904,0 3.475,1.566 3.475,3.476 0,1.91 -1.568,3.476 -3.475,3.476 -1.907,0 -3.476,-1.564 -3.476,-3.476 0,-1.909 1.569,-3.476 3.476,-3.476 z"
   id="path1"
   style="fill:#ffffff;fill-opacity:0.98406398;stroke:#000000;stroke-opacity:1;stroke-width:0.2991434;stroke-dasharray:none" />
</g>
<path
   style="fill:#019a88;fill-opacity:0.984064;stroke:url(#linearGradient9);stroke-width:0.0775311;stroke-dasharray:none"
   d="M 7.072439,2.5544576 C 7.3893554,2.8300493 7.501527,3.2180664 7.168329,3.7601491 6.104495,5.49089 2.8484953,4.4517249 1.9248794,4.0496459 1.0012634,3.6475659 6.7821748e-4,2.7608632 0.79922386,2.1979497 0.89916036,2.1275037 1.0340729,2.0687145 1.1936097,2.0197542 0.85547177,2.1161172 0.57105372,2.2485779 0.38928032,2.4292868 -0.51068298,3.3240082 0.6169834,4.6192327 1.6579139,5.2583228 2.6988382,5.897412 6.3683879,7.5491268 7.5673394,4.7981774 8.0640694,3.6584509 7.6753518,2.9533941 7.0426366,2.5178599"
   id="path1-2" /></svg>
