<?xml version="1.0" encoding="UTF-8" standalone="no"?>
<!-- Created with Inkscape (http://www.inkscape.org/) -->

<svg width="200mm" height="200mm" viewBox="0 0 200 200" version="1.1" id="svg1" inkscape:version="1.3.2 (091e20e, 2023-11-25)" sodipodi:docname="S-BTC².svg"
  xmlns:inkscape="http://www.inkscape.org/namespaces/inkscape"
  xmlns:sodipodi="http://sodipodi.sourceforge.net/DTD/sodipodi-0.dtd"
  xmlns:xlink="http://www.w3.org/1999/xlink"
  xmlns="http://www.w3.org/2000/svg"
  xmlns:svg="http://www.w3.org/2000/svg">
  <sodipodi:namedview id="namedview1" pagecolor="#ffffff" bordercolor="#000000" borderopacity="0.25" inkscape:showpageshadow="2" inkscape:pageopacity="0.0" inkscape:pagecheckerboard="0" inkscape:deskcolor="#d1d1d1" inkscape:document-units="mm" showguides="true" inkscape:zoom="0.38866848" inkscape:cx="484.98916" inkscape:cy="438.67719" inkscape:window-width="2048" inkscape:window-height="1124" inkscape:window-x="0" inkscape:window-y="28" inkscape:window-maximized="0" inkscape:current-layer="svg1" />
  <defs id="defs1">
    <linearGradient id="swatch5" inkscape:swatch="solid">
      <stop style="stop-color:#000000;stop-opacity:1;" offset="0" id="stop5" />
    </linearGradient>
    <linearGradient inkscape:collect="always" xlink:href="#swatch5" id="linearGradient8" x1="5.0000057" y1="52.502884" x2="94.999596" y2="52.502884" gradientUnits="userSpaceOnUse" />
    <linearGradient inkscape:collect="always" xlink:href="#swatch5" id="linearGradient1" gradientUnits="userSpaceOnUse" x1="5.0000057" y1="52.502884" x2="94.999596" y2="52.502884" />
    <linearGradient inkscape:collect="always" xlink:href="#swatch5" id="linearGradient9" gradientUnits="userSpaceOnUse" x1="5.0000057" y1="52.502884" x2="94.999596" y2="52.502884" gradientTransform="matrix(2.21205,0,0,1.5271809,-10.046105,32.338587)" />
    <linearGradient inkscape:collect="always" xlink:href="#swatch5" id="linearGradient5" gradientUnits="userSpaceOnUse" gradientTransform="matrix(2.2557672,0,0,1.4817912,-13.166485,35.500787)" x1="5.0000057" y1="52.502884" x2="94.999596" y2="52.502884" />
  </defs>
  <g id="SvgjsG1240" transform="matrix(2.3702834,0,0,1.4453497,-16.721717,35.759873)" fill="#000000" class="fill-primary" style="fill:#019a4f;fill-opacity:0.984064;stroke:url(#linearGradient8);stroke-width:0.999973;stroke-dasharray:none" inkscape:label="SvgjsG1240">
    <path d="m 23.667175,48.459167 c -0.392395,-0.591186 -1.619323,-3.063964 2.03595,-6.926147 4.111389,-4.344116 14.407898,-9.137695 26.769775,-7.927734 0,0 5.071656,0.347473 7.352417,3.18927 C 59.396118,36.223022 58.933533,35.643066 58.43335,35.054382 46.647217,21.182617 34.644714,21.110046 30.830749,21.503296 c -0.415222,0.05811 -0.829284,0.119995 -1.241943,0.185852 -3.144653,0.501892 -6.195923,1.234192 -8.901916,2.281921 -1.589966,0.662903 -2.934449,1.458985 -3.930359,2.412842 -6.71228,6.428833 -0.669068,15.976685 6.910644,22.075256 z" id="path2" style="display:inline;fill:#f6ad3b;fill-opacity:0.984314;stroke:url(#linearGradient1);stroke-width:0.999973;stroke-dasharray:none" />
  </g>
  <path style="fill:#f6ad3b;fill-opacity:0.984064;stroke:url(#linearGradient5);stroke-width:1.82822;stroke-dasharray:none" d="m 181.42211,81.85674 v 1.48e-4 c -2.80544,-2.594542 -6.64049,-4.773805 -11.08732,-6.585968 l -0.65373,-0.273855 c -22.56908,-9.152789 -50.90953,-10.210822 -50.90953,-10.210822 0,0 -32.681526,-2.208724 -63.167405,0.312144 9.695933,-0.59059 40.209227,-0.481781 70.172325,20.355099 35.37723,24.601904 -0.62783,39.388114 -24.62806,36.733214 30.49439,3.87878 64.49673,2.31202 80.03664,-17.98394 7.05913,-9.219686 6.18983,-16.239407 1.01962,-21.570898" id="path5" />
  <g inkscape:label="Layer 1" inkscape:groupmode="layer" id="layer1" style="display:inline">
    <g id="g3" transform="matrix(0.50452816,0,0,0.56459451,34.934249,-0.28616475)" inkscape:label="g3" style="fill:#fec01c;fill-opacity:0.98406398;stroke:#000000;stroke-opacity:1;stroke-width:5.62095649;stroke-dasharray:none">
      <g id="g2" inkscape:label="g2" style="fill:#fec01c;fill-opacity:0.98406398;stroke:#000000;stroke-opacity:1;stroke-width:5.62095649;stroke-dasharray:none">
        <path d="m 217.021,167.042 c 18.631,-9.483 30.288,-26.184 27.565,-54.007 C 240.919,75.012 208.06,62.262 166.58,58.631 L 166.572,5.89 h -32.139 l -0.009,51.354 c -8.456,0 -17.076,0.166 -25.657,0.338 L 108.76,5.897 76.65,5.894 76.644,58.622 c -6.959,0.142 -13.793,0.277 -20.466,0.277 v -0.156 l -44.33,-0.018 0.006,34.282 c 0,0 23.734,-0.446 23.343,-0.013 13.013,0.009 17.262,7.559 18.484,14.076 l 0.01,60.083 v 84.397 c -0.573,4.09 -2.984,10.625 -12.083,10.637 0.414,0.364 -23.379,-0.004 -23.379,-0.004 l -6.375,38.335 h 41.817 c 7.792,0.009 15.448,0.13 22.959,0.19 l 0.028,53.338 32.102,0.009 -0.009,-52.779 c 8.832,0.18 17.357,0.258 25.684,0.247 l -0.009,52.532 h 32.138 l 0.018,-53.249 c 54.022,-3.1 91.842,-16.697 96.544,-67.385 3.79,-40.809 -15.434,-59.025 -46.105,-66.379 z M 109.535,95.321 c 18.126,0 75.132,-5.767 75.14,32.064 -0.008,36.269 -56.996,32.032 -75.14,32.032 V 95.321 Z m -0.014,167.126 0.014,-70.672 c 21.778,-0.006 90.085,-6.261 90.094,35.32 0.009,39.876 -68.316,35.336 -90.108,35.352 z" id="path1-8" style="fill:#fec01c;fill-opacity:0.98406398;stroke:#000000;stroke-opacity:1;stroke-width:5.62095649;stroke-dasharray:none" />
      </g>
    </g>
  </g>
  <path style="fill:#f6ad3b;fill-opacity:0.984064;stroke:url(#linearGradient9);stroke-width:1.83794;stroke-dasharray:none" d="m 181.53873,80.913249 c 8.16002,6.014942 11.04824,14.483633 2.46899,26.314891 -27.3918,37.77439 -111.227896,15.09403 -135.009336,6.31843 C 25.216945,104.77095 -0.54631284,85.418167 20.014791,73.132264 22.587974,71.594739 26.06173,70.311634 30.169513,69.243047 21.463073,71.346219 14.139823,74.237254 9.4594856,78.181326 -13.71294,97.709121 15.322429,125.97812 42.124506,139.92662 68.926424,153.8751 163.41069,189.9247 194.28152,129.88369 c 12.7899,-24.87517 2.78112,-40.26343 -13.51015,-49.769206" id="path1" />
  <path d="M 198.70044,51.204733 H 145.01983 V 31.284896 a 17.893547,9.9599239 0 0 1 17.89354,-9.959943 h 17.89354 V 11.365034 H 145.01983 V 1.4050924 h 35.78708 a 17.893547,9.9599239 0 0 1 17.89353,9.9599416 v 9.959919 a 17.893547,9.9599239 0 0 1 -17.89353,9.959943 h -17.89354 v 9.959916 h 35.78707 z" id="path1-6" style="fill:#f6ad3b;fill-opacity:0.984314;stroke:#000000;stroke-width:1.34843;stroke-dasharray:none;stroke-opacity:1" />
</svg>
