<?xml version="1.0" encoding="UTF-8" standalone="no"?>
<!-- Uploaded to: SVG Repo, www.svgrepo.com, Generator: SVG Repo Mixer Tools -->

<svg
   fill="#000000"
   height="800px"
   width="800px"
   version="1.2"
   id="Layer_1"
   viewBox="-77 79 100 100"
   xml:space="preserve"
   sodipodi:docname="golden-gate-bridge.svg"
   inkscape:version="1.3.2 (091e20e, 2023-11-25)"
   xmlns:inkscape="http://www.inkscape.org/namespaces/inkscape"
   xmlns:sodipodi="http://sodipodi.sourceforge.net/DTD/sodipodi-0.dtd"
   xmlns="http://www.w3.org/2000/svg"
   xmlns:svg="http://www.w3.org/2000/svg"><defs
   id="defs1" /><sodipodi:namedview
   id="namedview1"
   pagecolor="#ffffff"
   bordercolor="#000000"
   borderopacity="0.25"
   inkscape:showpageshadow="2"
   inkscape:pageopacity="0.0"
   inkscape:pagecheckerboard="0"
   inkscape:deskcolor="#d1d1d1"
   inkscape:zoom="0.295"
   inkscape:cx="400"
   inkscape:cy="398.30508"
   inkscape:window-width="2048"
   inkscape:window-height="1124"
   inkscape:window-x="0"
   inkscape:window-y="28"
   inkscape:window-maximized="0"
   inkscape:current-layer="Layer_1" />
<path
   d="m -36.530873,158.7 c 0,-0.3 0.248257,-0.5 0.620643,-0.5 h 27.4323791 c 0.3723852,0 0.620642,0.2 0.620642,0.5 0,0.3 -0.2482568,0.5 -0.620642,0.5 H -35.91023 c -0.372386,0 -0.620643,-0.2 -0.620643,-0.5 z m 47.417055,3.1 c -0.372385,0 -0.620642,0.2 -0.620642,0.5 0,0.3 0.248257,0.5 0.620642,0.5 h 13.654125 c 0.372385,0 0.620642,-0.2 0.620642,-0.5 0,-0.3 -0.248257,-0.5 -0.620642,-0.5 z M -80.59646,135.6 h -7.944218 V 131 h 2.110183 v -17.3 c -0.620642,1 -1.365412,2 -2.110183,3 v -4.5 c 6.951191,-10.8 10.054401,-23 10.302658,-23.8 v 0 0 c 0,0 0,0 0,0 v 0 h 3.227339 v 0 c 0.248258,0.5 20.481188,40.5 48.285954,41.1 0.248256,0 0.496512,0 0.620641,0 16.5090792,0 32.6457732,-13.8 47.913568,-41.1 v 0 0 c 0,0 0,0 0,0 v 0 h 3.227339 v 0.1 c 0.248257,1 3.475595,13.3 10.550915,24.1 v 4.5 c -0.74477,-1 -1.365412,-1.9 -2.110183,-2.9 v 17 h 2.234311 v 4.6 H 27.51939 V 153 h 3.723851 v 3.5 H 15.72719 V 153 h 3.847981 V 135.8 H -72.652241 V 153 h 4.096238 v 3.5 h -15.64018 V 153 h 3.475595 V 135.6 Z M 25.160949,97 v 7.7 h 0.993028 v 12.6 H 27.39526 V 131 h 4.592753 v -19.4 c 0,0 0,0 0,0 C 29.00893,106.4 26.774618,101.2 25.160949,97 Z M 14.98242,131 h 4.592751 v -13.6 h 1.241284 v -12.6 h 0.993027 V 93.4 c -2.35844,3.9 -4.592751,7.5 -6.951191,10.8 0,0 0,0 0,0 0,0 0,0 0,0 V 131 Z M 7.6588429,113.5 c 0,0 0,0 0,0 0,0 0,0 0,0 V 131 h 5.7099061 v -24.6 c 0,0 0,0 0,0 -1.861926,2.6 -3.8479801,4.9 -5.7099061,7.1 z M 0.3352664,131 h 5.7099071 v -15.8 c -1.8619262,2 -3.8479808,3.9 -5.7099071,5.5 z m -7.199448,0 h 5.709907 v -9 c -1.8619261,1.5 -3.8479808,2.9 -5.709907,4.1 z m -7.5718324,-1.2 0.124128,1.2 h 5.9581634 v -4 c -2.1101824,1.2 -4.0962374,2.1 -6.0822914,2.8 z m -29.914948,1.2 h 6.702934 l 0.124128,-1.2 c -3.475596,-1.2 -3.227339,-1.1 -6.827062,-3.1 z m -7.199449,0 h 5.709907 v -5.2 c -1.861926,-1.2 -3.847981,-2.5 -5.709907,-4 z m -7.323577,0 h 5.709908 v -10.5 c -1.861926,-1.6 -3.847981,-3.4 -5.709908,-5.3 0,0 0,0 0,0 z m -7.323575,0 h 5.709906 v -17.5 c -0.993027,-1 -1.861925,-2.1 -2.854954,-3.2 -0.993026,-1.2 -1.986053,-2.4 -2.854952,-3.6 z m -8.68899,-26.3 h 0.993027 v 12.6 h 1.241285 V 131 h 4.841009 v -26.4 c -3.103211,-4.3 -5.58578,-8.2 -7.199449,-11 v 11.1 z M -80.59646,131 v -13.6 h 1.241284 v -12.6 h 0.993027 V 97 c -1.48954,4.1 -3.599723,9.2 -6.702934,14.2 V 131 Z m 77.207874,35 c 0,-0.3 -0.2482567,-0.5 -0.6206421,-0.5 H -22.752618 c -0.372386,0 -0.620642,0.2 -0.620642,0.5 0,0.3 0.248256,0.5 0.620642,0.5 h 18.7433899 c 0.2482568,0 0.6206421,-0.2 0.6206421,-0.5 z m -26.935866,-4.2 h -17.874491 c -0.372386,0 -0.620642,0.2 -0.620642,0.5 0,0.3 0.248256,0.5 0.620642,0.5 h 17.874491 c 0.372385,0 0.620642,-0.2 0.620642,-0.5 0,-0.3 -0.248257,-0.5 -0.620642,-0.5 z m 1.117156,13.2 h -25.942838 c -0.372386,0 -0.620642,0.2 -0.620642,0.5 0,0.3 0.248256,0.5 0.620642,0.5 h 25.942838 c 0.372386,0 0.620642,-0.2 0.620642,-0.5 0,-0.3 -0.248256,-0.5 -0.620642,-0.5 z m -11.047429,-5.5 c 0,-0.3 -0.248257,-0.5 -0.620642,-0.5 h -23.584399 c -0.372385,0 -0.620642,0.2 -0.620642,0.5 0,0.3 0.248257,0.5 0.620642,0.5 h 23.584399 c 0.372385,0 0.620642,-0.3 0.620642,-0.5 z M 15.72719,175 H -9.8432632 c -0.3723858,0 -0.6206418,0.2 -0.6206418,0.5 0,0.3 0.248256,0.5 0.6206418,0.5 H 15.72719 c 0.372385,0 0.620642,-0.2 0.620642,-0.5 0,-0.3 -0.248257,-0.5 -0.620642,-0.5 z m 19.364032,-16.8 h -8.316604 c -0.372385,0 -0.620641,0.2 -0.620641,0.5 0,0.3 0.248256,0.5 0.620641,0.5 h 8.316604 c 0.372385,0 0.620642,-0.2 0.620642,-0.5 0,-0.3 -0.248257,-0.5 -0.620642,-0.5 z M 19.326914,169 H -0.40950406 c -0.37238526,0 -0.62064204,0.2 -0.62064204,0.5 0,0.3 0.24825678,0.5 0.62064204,0.5 H 19.326914 c 0.372385,0 0.620641,-0.2 0.620641,-0.5 0,-0.3 -0.372384,-0.5 -0.620641,-0.5 z m 15.143667,-3.5 h -11.04743 c -0.372384,0 -0.620642,0.2 -0.620642,0.5 0,0.3 0.248258,0.5 0.620642,0.5 h 11.04743 c 0.372385,0 0.620641,-0.2 0.620641,-0.5 0,-0.3 -0.248256,-0.5 -0.620641,-0.5 z M -70.790314,175 h -13.529998 c -0.372385,0 -0.620643,0.2 -0.620643,0.5 0,0.3 0.248258,0.5 0.620643,0.5 h 13.529998 c 0.372384,0 0.620642,-0.2 0.620642,-0.5 0,-0.3 -0.248258,-0.5 -0.620642,-0.5 z m 43.941458,-20.5 c 0,-0.3 -0.248257,-0.5 -0.620643,-0.5 h -16.757335 c -0.372385,0 -0.620642,0.2 -0.620642,0.5 0,0.3 0.248257,0.5 0.620642,0.5 h 16.757335 c 0.248258,0 0.620643,-0.2 0.620643,-0.5 z m 34.0111852,0 c 0,-0.3 -0.2482569,-0.5 -0.620642,-0.5 H -14.436014 c -0.372386,0 -0.620644,0.2 -0.620644,0.5 0,0.3 0.248258,0.5 0.620644,0.5 H 6.5416872 c 0.3723851,0 0.620642,-0.2 0.620642,-0.5 z m -76.4631032,4.7 c 0.372385,0 0.620643,-0.2 0.620643,-0.5 0,-0.3 -0.248258,-0.5 -0.620643,-0.5 h -15.516052 c -0.372385,0 -0.620641,0.2 -0.620641,0.5 0,0.3 0.248256,0.5 0.620641,0.5 z m -18.246876,3.1 c 0,0.3 0.248255,0.5 0.620641,0.5 h 12.040456 c 0.372386,0 0.620643,-0.2 0.620643,-0.5 0,-0.3 -0.248257,-0.5 -0.620643,-0.5 h -12.040456 c -0.372386,0 -0.620641,0.2 -0.620641,0.5 z m 39.472834,-3.6 c 0,-0.3 -0.248255,-0.5 -0.620641,-0.5 h -13.28174 c -0.372385,0 -0.620643,0.2 -0.620643,0.5 0,0.3 0.248258,0.5 0.620643,0.5 h 13.28174 c 0.248257,0 0.620641,-0.2 0.620641,-0.5 z m -5.461649,-3.7 c 0.372385,0 0.620642,-0.2 0.620642,-0.5 0,-0.3 -0.248257,-0.5 -0.620642,-0.5 h -9.806146 c -0.372384,0 -0.620641,0.2 -0.620641,0.5 0,0.3 0.248257,0.5 0.620641,0.5 z m -20.357061,11.5 h 18.495134 c 0.372386,0 0.620643,-0.2 0.620643,-0.5 0,-0.3 -0.248257,-0.5 -0.620643,-0.5 h -18.495134 c -0.372384,0 -0.620641,0.2 -0.620641,0.5 0,0.3 0.248257,0.5 0.620641,0.5 z"
   id="path1"
   style="fill:#8b8b8b;fill-opacity:0.420588;stroke-width:1.11412" />
</svg>
