<!-- <svg width="200" height="200" viewBox="110 90 90 70">
  <g id="SvgjsG1240" transform="matrix(0.8547047672287809,0,0,0.8547047672287809,113.72647127319618,81.62436052828465)" fill="#ffffff" class="fill-primary">
    <path xmlns="http://www.w3.org/2000/svg" d="M86.2626953,31.2838745c-1.2436523-1.7509766-2.9437866-3.2216797-4.9151001-4.4445801L81.0578003,26.65448  c-10.0050659-6.1768188-22.5686035-6.8908691-22.5686035-6.8908691s-14.4879761-1.4905396-28.0026245,0.2106323  c4.2982788-0.3986206,17.8250732-0.3250732,31.1079712,13.7368164  c15.6829834,16.6027832-0.2783203,26.5813599-10.9178467,24.7897339  c13.5184326,2.6176147,28.5919189,1.5603027,35.480896-12.1366577c3.1293945-6.2219849,2.7440186-10.9592896,0.4520264-14.557251  c3.6889038,3.9385986,4.9945679,9.4838867,1.1161499,17.2310181c-12.3829956,24.7347412-50.2827148,9.883606-61.0335693,4.1373291  S4.2945557,34.7567139,13.5895996,26.7119141c1.163269-1.0067749,2.7336426-1.8469849,4.5906372-2.5466919  c-3.9359131,1.3771362-7.246521,3.2702026-9.3623657,5.8527832c-10.4755249,12.7868652,2.6504517,31.2974243,14.7668457,40.4309082  c12.116333,9.1334839,54.8297729,32.7388306,68.7855225-6.5761108  C98.1521606,47.5844727,93.6275024,37.5082397,86.2626953,31.2838745z" />
    <path xmlns="http://www.w3.org/2000/svg" d="M23.6671753,48.4591675c-0.392395-0.5911865-1.6193237-3.0639648,2.0359497-6.9261475  c4.1113892-4.3441162,14.4078979-9.1376953,26.7697754-7.9277344c0,0,5.0716553,0.3474731,7.352417,3.18927  c-0.4291992-0.5715332-0.8917847-1.1514893-1.3919678-1.7401733C46.6472168,21.1826172,34.6447144,21.1100464,30.8307495,21.5032959  c-0.4152222,0.0581055-0.8292847,0.1199951-1.2419434,0.1858521c-3.1446533,0.5018921-6.1959229,1.2341919-8.9019165,2.2819214  c-1.5899658,0.6629028-2.9344482,1.4589844-3.9303589,2.4128418C10.0442505,32.8127441,16.0874634,42.3605957,23.6671753,48.4591675  z" />
  </g>
</svg> -->
<svg xmlns="http://www.w3.org/2000/svg" width="200" height="200" viewBox="110 90 90 70">
  <g id="SvgjsG1240" transform="matrix(0.8547047672287809,0,0,0.8547047672287809,113.72647127319618,81.62436052828465)" fill="#000000" class="fill-primary">
    <path d="M86.2626953,31.2838745c-1.2436523-1.7509766-2.9437866-3.2216797-4.9151001-4.4445801L81.0578003,26.65448  c-10.0050659-6.1768188-22.5686035-6.8908691-22.5686035-6.8908691s-14.4879761-1.4905396-28.0026245,0.2106323  c4.2982788-0.3986206,17.8250732-0.3250732,31.1079712,13.7368164  c15.6829834,16.6027832-0.2783203,26.5813599-10.9178467,24.7897339  c13.5184326,2.6176147,28.5919189,1.5603027,35.480896-12.1366577c3.1293945-6.2219849,2.7440186-10.9592896,0.4520264-14.557251  c3.6889038,3.9385986,4.9945679,9.4838867,1.1161499,17.2310181c-12.3829956,24.7347412-50.2827148,9.883606-61.0335693,4.1373291  S4.2945557,34.7567139,13.5895996,26.7119141c1.163269-1.0067749,2.7336426-1.8469849,4.5906372-2.5466919  c-3.9359131,1.3771362-7.246521,3.2702026-9.3623657,5.8527832c-10.4755249,12.7868652,2.6504517,31.2974243,14.7668457,40.4309082  c12.116333,9.1334839,54.8297729,32.7388306,68.7855225-6.5761108  C98.1521606,47.5844727,93.6275024,37.5082397,86.2626953,31.2838745z" />
    <path d="M23.6671753,48.4591675c-0.392395-0.5911865-1.6193237-3.0639648,2.0359497-6.9261475  c4.1113892-4.3441162,14.4078979-9.1376953,26.7697754-7.9277344c0,0,5.0716553,0.3474731,7.352417,3.18927  c-0.4291992-0.5715332-0.8917847-1.1514893-1.3919678-1.7401733C46.6472168,21.1826172,34.6447144,21.1100464,30.8307495,21.5032959  c-0.4152222,0.0581055-0.8292847,0.1199951-1.2419434,0.1858521c-3.1446533,0.5018921-6.1959229,1.2341919-8.9019165,2.2819214  c-1.5899658,0.6629028-2.9344482,1.4589844-3.9303589,2.4128418C10.0442505,32.8127441,16.0874634,42.3605957,23.6671753,48.4591675  z" />
  </g>
  <g transform="scale(0.1, 0.1)">
    <path d="M1362 1185q0 153-99.5 263.5t-258.5 136.5v175q0 14-9 23t-23 9h-135q-13 0-22.5-9.5t-9.5-22.5v-175q-66-9-127.5-31t-101.5-44.5-74-48-46.5-37.5-17.5-18q-17-21-2-41l103-135q7-10 23-12 15-2 24 9l2 2q113 99 243 125 37 8 74 8 81 0 142.5-43t61.5-122q0-28-15-53t-33.5-42-58.5-37.5-66-32-80-32.5q-39-16-61.5-25t-61.5-26.5-62.5-31-56.5-35.5-53.5-42.5-43.5-49-35.5-58-21-66.5-8.5-78q0-138 98-242t255-134v-180q0-13 9.5-22.5t22.5-9.5h135q14 0 23 9t9 23v176q57 6 110.5 23t87 33.5 63.5 37.5 39 29 15 14q17 18 5 38l-81 146q-8 15-23 16-14 3-27-7-3-3-14.5-12t-39-26.5-58.5-32-74.5-26-85.5-11.5q-95 0-155 43t-60 111q0 26 8.5 48t29.5 41.5 39.5 33 56 31 60.5 27 70 27.5q53 20 81 31.5t76 35 75.5 42.5 62 50 53 63.5 31.5 76.5 13 94z"/>
  </g>
</svg>


<svg height="1792" viewBox="0 0 1792 1792"
  xmlns="http://www.w3.org/2000/svg">
  <g transform="scale(0.1, 0.1)" fill="#000000">
    <path d="M1362 1185q0 153-99.5 263.5t-258.5 136.5v175q0 14-9 23t-23 9h-135q-13 0-22.5-9.5t-9.5-22.5v-175q-66-9-127.5-31t-101.5-44.5-74-48-46.5-37.5-17.5-18q-17-21-2-41l103-135q7-10 23-12 15-2 24 9l2 2q113 99 243 125 37 8 74 8 81 0 142.5-43t61.5-122q0-28-15-53t-33.5-42-58.5-37.5-66-32-80-32.5q-39-16-61.5-25t-61.5-26.5-62.5-31-56.5-35.5-53.5-42.5-43.5-49-35.5-58-21-66.5-8.5-78q0-138 98-242t255-134v-180q0-13 9.5-22.5t22.5-9.5h135q14 0 23 9t9 23v176q57 6 110.5 23t87 33.5 63.5 37.5 39 29 15 14q17 18 5 38l-81 146q-8 15-23 16-14 3-27-7-3-3-14.5-12t-39-26.5-58.5-32-74.5-26-85.5-11.5q-95 0-155 43t-60 111q0 26 8.5 48t29.5 41.5 39.5 33 56 31 60.5 27 70 27.5q53 20 81 31.5t76 35 75.5 42.5 62 50 53 63.5 31.5 76.5 13 94z"/>
  </g>
</svg>