<?xml version="1.0" encoding="UTF-8" standalone="no"?>
<!-- <svg width="200" height="200" viewBox="110 90 90 70">
  <g id="SvgjsG1240" transform="matrix(0.8547047672287809,0,0,0.8547047672287809,113.72647127319618,81.62436052828465)" fill="#ffffff" class="fill-primary">
    <path xmlns="http://www.w3.org/2000/svg" d="M86.2626953,31.2838745c-1.2436523-1.7509766-2.9437866-3.2216797-4.9151001-4.4445801L81.0578003,26.65448  c-10.0050659-6.1768188-22.5686035-6.8908691-22.5686035-6.8908691s-14.4879761-1.4905396-28.0026245,0.2106323  c4.2982788-0.3986206,17.8250732-0.3250732,31.1079712,13.7368164  c15.6829834,16.6027832-0.2783203,26.5813599-10.9178467,24.7897339  c13.5184326,2.6176147,28.5919189,1.5603027,35.480896-12.1366577c3.1293945-6.2219849,2.7440186-10.9592896,0.4520264-14.557251  c3.6889038,3.9385986,4.9945679,9.4838867,1.1161499,17.2310181c-12.3829956,24.7347412-50.2827148,9.883606-61.0335693,4.1373291  S4.2945557,34.7567139,13.5895996,26.7119141c1.163269-1.0067749,2.7336426-1.8469849,4.5906372-2.5466919  c-3.9359131,1.3771362-7.246521,3.2702026-9.3623657,5.8527832c-10.4755249,12.7868652,2.6504517,31.2974243,14.7668457,40.4309082  c12.116333,9.1334839,54.8297729,32.7388306,68.7855225-6.5761108  C98.1521606,47.5844727,93.6275024,37.5082397,86.2626953,31.2838745z" />
    <path xmlns="http://www.w3.org/2000/svg" d="M23.6671753,48.4591675c-0.392395-0.5911865-1.6193237-3.0639648,2.0359497-6.9261475  c4.1113892-4.3441162,14.4078979-9.1376953,26.7697754-7.9277344c0,0,5.0716553,0.3474731,7.352417,3.18927  c-0.4291992-0.5715332-0.8917847-1.1514893-1.3919678-1.7401733C46.6472168,21.1826172,34.6447144,21.1100464,30.8307495,21.5032959  c-0.4152222,0.0581055-0.8292847,0.1199951-1.2419434,0.1858521c-3.1446533,0.5018921-6.1959229,1.2341919-8.9019165,2.2819214  c-1.5899658,0.6629028-2.9344482,1.4589844-3.9303589,2.4128418C10.0442505,32.8127441,16.0874634,42.3605957,23.6671753,48.4591675  z" />
  </g>
</svg> -->

<svg
   width="200"
   height="200"
   viewBox="110 90 90 70"
   version="1.1"
   id="svg3"
   sodipodi:docname="icon.svg"
   inkscape:version="1.3.2 (091e20e, 2023-11-25)"
   xmlns:inkscape="http://www.inkscape.org/namespaces/inkscape"
   xmlns:sodipodi="http://sodipodi.sourceforge.net/DTD/sodipodi-0.dtd"
   xmlns="http://www.w3.org/2000/svg"
   xmlns:svg="http://www.w3.org/2000/svg">
  <defs
     id="defs3" />
  <sodipodi:namedview
     id="namedview3"
     pagecolor="#ffffff"
     bordercolor="#000000"
     borderopacity="0.25"
     inkscape:showpageshadow="2"
     inkscape:pageopacity="0.0"
     inkscape:pagecheckerboard="0"
     inkscape:deskcolor="#d1d1d1"
     inkscape:zoom="1.18"
     inkscape:cx="143.64407"
     inkscape:cy="106.35593"
     inkscape:window-width="1728"
     inkscape:window-height="1052"
     inkscape:window-x="0"
     inkscape:window-y="65"
     inkscape:window-maximized="0"
     inkscape:current-layer="svg3" />
  <g
     id="SvgjsG1240"
     transform="matrix(0.99029861,0,0,0.98051394,105.42138,74.63766)"
     fill="#000000"
     class="fill-primary"
     style="fill:#d2d2d2;fill-opacity:0.25099602;stroke:#646464;stroke-opacity:0.16176471;stroke-width:0.45667006;stroke-dasharray:none">
    <path
       d="m 86.262695,31.283874 c -1.243652,-1.750976 -2.943786,-3.221679 -4.9151,-4.44458 L 81.0578,26.65448 C 71.052734,20.477661 58.489197,19.763611 58.489197,19.763611 c 0,0 -14.487976,-1.49054 -28.002625,0.210632 4.298279,-0.39862 17.825073,-0.325073 31.107971,13.736817 15.682984,16.602783 -0.27832,26.581359 -10.917846,24.789733 13.518432,2.617615 28.591919,1.560303 35.480896,-12.136657 3.129394,-6.221985 2.744018,-10.95929 0.452026,-14.557251 3.688904,3.938598 4.994568,9.483886 1.11615,17.231018 C 75.342773,73.772644 37.443054,58.921509 26.6922,53.175232 15.941345,47.428955 4.2945557,34.756714 13.5896,26.711914 c 1.163269,-1.006775 2.733642,-1.846985 4.590637,-2.546692 -3.935913,1.377136 -7.246521,3.270203 -9.3623659,5.852783 C -1.6576538,42.804871 11.468323,61.31543 23.584717,70.448914 35.70105,79.582397 78.41449,103.18774 92.370239,63.872803 98.152161,47.584473 93.627502,37.50824 86.262695,31.283874 Z"
       id="path1"
       style="fill:#d2d2d2;fill-opacity:0.25099602;stroke:#646464;stroke-opacity:0.16176471;stroke-width:0.45667006;stroke-dasharray:none" />
    <path
       d="m 23.667175,48.459167 c -0.392395,-0.591186 -1.619323,-3.063964 2.03595,-6.926147 4.111389,-4.344116 14.407898,-9.137695 26.769775,-7.927734 0,0 5.071656,0.347473 7.352417,3.18927 C 59.396118,36.223022 58.933533,35.643066 58.43335,35.054382 46.647217,21.182617 34.644714,21.110046 30.830749,21.503296 c -0.415222,0.05811 -0.829284,0.119995 -1.241943,0.185852 -3.144653,0.501892 -6.195923,1.234192 -8.901916,2.281921 -1.589966,0.662903 -2.934449,1.458985 -3.930359,2.412842 -6.71228,6.428833 -0.669068,15.976685 6.910644,22.075256 z"
       id="path2"
       style="fill:#d2d2d2;fill-opacity:0.25099602;stroke:#646464;stroke-opacity:0.16176471;stroke-width:0.45667006;stroke-dasharray:none" />
  </g>
</svg>
