<?xml version="1.0" encoding="UTF-8" standalone="no"?>
<svg
   version="1.1"
   id="Layer_1"
   x="0px"
   y="0px"
   viewBox="0 0 200 200"
   enable-background="new 0 0 1920 1920"
   xml:space="preserve"
   sodipodi:docname="S-ETH².svg"
   width="200"
   height="200"
   inkscape:version="1.3.2 (091e20e, 2023-11-25)"
   xmlns:inkscape="http://www.inkscape.org/namespaces/inkscape"
   xmlns:sodipodi="http://sodipodi.sourceforge.net/DTD/sodipodi-0.dtd"
   xmlns:xlink="http://www.w3.org/1999/xlink"
   xmlns="http://www.w3.org/2000/svg"
   xmlns:svg="http://www.w3.org/2000/svg"><defs
   id="defs6"><linearGradient
     inkscape:collect="always"
     xlink:href="#swatch5"
     id="linearGradient5"
     gradientUnits="userSpaceOnUse"
     gradientTransform="matrix(2.0867971,0,0,1.5753288,0.95778074,22.595193)"
     x1="5.0000057"
     y1="52.502884"
     x2="94.999596"
     y2="52.502884" /><linearGradient
     id="swatch5"
     inkscape:swatch="solid"><stop
       style="stop-color:#000000;stop-opacity:1;"
       offset="0"
       id="stop5" /></linearGradient><linearGradient
     inkscape:collect="always"
     xlink:href="#swatch5"
     id="linearGradient9"
     gradientUnits="userSpaceOnUse"
     x1="5.0000057"
     y1="52.502884"
     x2="94.999596"
     y2="52.502884"
     gradientTransform="matrix(2.1845538,0,0,1.5716729,-8.9253436,20.662428)" /><linearGradient
     inkscape:collect="always"
     xlink:href="#swatch5"
     id="linearGradient8"
     x1="5.0000057"
     y1="52.502884"
     x2="94.999596"
     y2="52.502884"
     gradientUnits="userSpaceOnUse" /><linearGradient
     inkscape:collect="always"
     xlink:href="#swatch5"
     id="linearGradient6"
     gradientUnits="userSpaceOnUse"
     x1="5.0000057"
     y1="52.502884"
     x2="94.999596"
     y2="52.502884" /></defs><sodipodi:namedview
   id="namedview6"
   pagecolor="#ffffff"
   bordercolor="#000000"
   borderopacity="0.25"
   inkscape:showpageshadow="2"
   inkscape:pageopacity="0.0"
   inkscape:pagecheckerboard="0"
   inkscape:deskcolor="#d1d1d1"
   inkscape:zoom="1.1042599"
   inkscape:cx="127.23454"
   inkscape:cy="91.91677"
   inkscape:window-width="2048"
   inkscape:window-height="1124"
   inkscape:window-x="0"
   inkscape:window-y="28"
   inkscape:window-maximized="0"
   inkscape:current-layer="Layer_1" />
  <g
   id="SvgjsG1240"
   transform="matrix(2.4501596,0,0,1.632108,-17.434437,19.048699)"
   fill="#000000"
   class="fill-primary"
   style="fill:#019a4f;fill-opacity:0.984064;stroke:url(#linearGradient8);stroke-width:0.999973;stroke-dasharray:none"><path
     d="m 23.667175,48.459167 c -0.392395,-0.591186 -1.619323,-3.063964 2.03595,-6.926147 4.111389,-4.344116 14.407898,-9.137695 26.769775,-7.927734 0,0 5.071656,0.347473 7.352417,3.18927 C 59.396118,36.223022 58.933533,35.643066 58.43335,35.054382 46.647217,21.182617 34.644714,21.110046 30.830749,21.503296 c -0.415222,0.05811 -0.829284,0.119995 -1.241943,0.185852 -3.144653,0.501892 -6.195923,1.234192 -8.901916,2.281921 -1.589966,0.662903 -2.934449,1.458985 -3.930359,2.412842 -6.71228,6.428833 -0.669068,15.976685 6.910644,22.075256 z"
     id="path2-4"
     style="display:inline;fill:#019a88;fill-opacity:0.984314;stroke:url(#linearGradient6);stroke-width:0.999973;stroke-dasharray:none" /></g><path
   style="fill:#019a88;fill-opacity:0.984064;stroke:url(#linearGradient5);stroke-width:1.81307;stroke-dasharray:none"
   d="m 180.97057,71.877368 v 1.5e-4 c -2.59528,-2.758311 -6.1431,-5.07518 -10.25683,-7.001691 l -0.60475,-0.291241 c -20.87853,-9.730581 -47.09612,-10.855395 -47.09612,-10.855395 0,0 -30.233493,-2.348144 -58.435802,0.331815 8.969642,-0.627923 37.197342,-0.512092 64.916032,21.640004 32.72724,26.15485 -0.5808,41.87445 -22.7833,39.05196 28.21021,4.12365 59.66554,2.45798 74.04142,-19.119191 6.53038,-9.80165 5.72619,-17.26446 0.94328,-22.932505"
   id="path5" /><g
   id="g6"
   transform="matrix(0.1123601,0,0,0.11357979,-4.8655693,-9.4841644)">
    <polygon
   fill="#8a92b2"
   points="959.8,80.7 420.1,976.3 959.8,731 "
   id="polygon1" />
    <polygon
   fill="#62688f"
   points="959.8,731 420.1,976.3 959.8,1295.4 "
   id="polygon2" />
    <polygon
   fill="#62688f"
   points="1499.6,976.3 959.8,80.7 959.8,731 "
   id="polygon3" />
    <polygon
   fill="#454a75"
   points="959.8,1295.4 1499.6,976.3 959.8,731 "
   id="polygon4" />
    <polygon
   fill="#8a92b2"
   points="420.1,1078.7 959.8,1839.3 959.8,1397.6 "
   id="polygon5" />
    <polygon
   fill="#62688f"
   points="959.8,1397.6 959.8,1839.3 1499.9,1078.7 "
   id="polygon6" />
  </g>
<path
   style="fill:#019a88;fill-opacity:0.984064;stroke:url(#linearGradient9);stroke-width:1.8529;stroke-dasharray:none"
   d="m 180.27805,70.652236 c 8.05861,6.190184 10.91092,14.905605 2.43831,27.081572 C 155.66502,136.60867 72.871012,113.2676 49.385216,104.23631 25.899381,95.205018 0.45633534,75.288434 20.761863,62.644605 c 2.541228,-1.58232 5.97179,-2.902824 10.028503,-4.002563 -8.598226,2.164472 -15.830424,5.139704 -20.452593,9.198691 -22.884368,20.096735 5.790064,49.189297 32.258973,63.544147 26.468788,14.35486 119.778594,51.4547 150.265704,-10.33549 12.63091,-25.599882 2.74655,-41.436478 -13.34224,-51.219159"
   id="path1" /><path
   d="M 199.50192,50.647261 H 141.8019 V 30.570033 a 19.233355,10.038621 0 0 1 19.23334,-10.038641 h 19.23335 V 10.492777 H 141.8019 V 0.45413883 h 38.46669 A 19.233355,10.038621 0 0 1 199.50192,10.492777 v 10.038615 a 19.233355,10.038621 0 0 1 -19.23333,10.038641 h -19.23335 v 10.038614 h 38.46668 z"
   id="path1-6"
   style="fill:#019a88;fill-opacity:0.984314;stroke:#000000;stroke-width:1.40351;stroke-dasharray:none;stroke-opacity:1" /></svg>
