<?xml version="1.0" encoding="UTF-8" standalone="no"?>
<svg
   clip-rule="evenodd"
   fill-rule="evenodd"
   stroke-linejoin="round"
   stroke-miterlimit="2"
   viewBox="0 0 200 200"
   version="1.1"
   id="svg4"
   sodipodi:docname="s-sol.svg"
   width="200"
   height="200"
   inkscape:version="1.3.2 (091e20e, 2023-11-25)"
   xmlns:inkscape="http://www.inkscape.org/namespaces/inkscape"
   xmlns:sodipodi="http://sodipodi.sourceforge.net/DTD/sodipodi-0.dtd"
   xmlns:xlink="http://www.w3.org/1999/xlink"
   xmlns="http://www.w3.org/2000/svg"
   xmlns:svg="http://www.w3.org/2000/svg">
  <defs
     id="defs4">
    <linearGradient
       inkscape:collect="always"
       xlink:href="#swatch5"
       id="linearGradient9"
       gradientUnits="userSpaceOnUse"
       x1="5.0000057"
       y1="52.502884"
       x2="94.999596"
       y2="52.502884"
       gradientTransform="matrix(2.183292,0,0,1.1543102,-7.7869397,54.307792)" />
    <linearGradient
       id="swatch5"
       inkscape:swatch="solid">
      <stop
         style="stop-color:#000000;stop-opacity:1;"
         offset="0"
         id="stop5" />
    </linearGradient>
    <linearGradient
       inkscape:collect="always"
       xlink:href="#swatch5"
       id="linearGradient8"
       x1="5.0000057"
       y1="52.502884"
       x2="94.999596"
       y2="52.502884"
       gradientUnits="userSpaceOnUse" />
    <linearGradient
       inkscape:collect="always"
       xlink:href="#swatch5"
       id="linearGradient4"
       gradientUnits="userSpaceOnUse"
       x1="5.0000057"
       y1="52.502884"
       x2="94.999596"
       y2="52.502884" />
    <linearGradient
       inkscape:collect="always"
       xlink:href="#swatch5"
       id="linearGradient5"
       gradientUnits="userSpaceOnUse"
       gradientTransform="matrix(2.090077,0,0,1.1554744,0.86173725,55.048648)"
       x1="5.0000057"
       y1="52.502884"
       x2="94.999596"
       y2="52.502884" />
  </defs>
  <sodipodi:namedview
     id="namedview4"
     pagecolor="#ffffff"
     bordercolor="#000000"
     borderopacity="0.25"
     inkscape:showpageshadow="2"
     inkscape:pageopacity="0.0"
     inkscape:pagecheckerboard="0"
     inkscape:deskcolor="#d1d1d1"
     inkscape:zoom="2.1733276"
     inkscape:cx="41.18109"
     inkscape:cy="153.45133"
     inkscape:window-width="2048"
     inkscape:window-height="1124"
     inkscape:window-x="0"
     inkscape:window-y="28"
     inkscape:window-maximized="0"
     inkscape:current-layer="svg4" />
  <linearGradient
     id="a">
    <stop
       offset="0"
       stop-color="#00ffa3"
       id="stop1" />
    <stop
       offset="1"
       stop-color="#dc1fff"
       id="stop2" />
  </linearGradient>
  <linearGradient
     id="b"
     gradientTransform="matrix(-219.666,420.749,-420.749,-219.666,360.879,-37.4553)"
     gradientUnits="userSpaceOnUse"
     x1="0"
     x2="1"
     xlink:href="#a"
     y1="0"
     y2="0" />
  <linearGradient
     id="c"
     gradientTransform="matrix(-219.666,420.749,-420.749,-219.666,264.829,-87.6014)"
     gradientUnits="userSpaceOnUse"
     x1="0"
     x2="1"
     xlink:href="#a"
     y1="0"
     y2="0" />
  <linearGradient
     id="d"
     gradientTransform="matrix(-219.666,420.749,-420.749,-219.666,312.548,-62.688)"
     gradientUnits="userSpaceOnUse"
     x1="0"
     x2="1"
     xlink:href="#a"
     y1="0"
     y2="0" />
  <g
     id="SvgjsG1240"
     transform="matrix(2.4559906,0,0,1.1698083,-14.7524,54.918159)"
     fill="#000000"
     class="fill-primary"
     style="fill:#019a4f;fill-opacity:0.984064;stroke:url(#linearGradient8);stroke-width:0.999973;stroke-dasharray:none">
    <path
       d="m 23.667175,48.459167 c -0.392395,-0.591186 -1.619323,-3.063964 2.03595,-6.926147 4.111389,-4.344116 14.407898,-9.137695 26.769775,-7.927734 0,0 5.071656,0.347473 7.352417,3.18927 C 59.396118,36.223022 58.933533,35.643066 58.43335,35.054382 46.647217,21.182617 34.644714,21.110046 30.830749,21.503296 c -0.415222,0.05811 -0.829284,0.119995 -1.241943,0.185852 -3.144653,0.501892 -6.195923,1.234192 -8.901916,2.281921 -1.589966,0.662903 -2.934449,1.458985 -3.930359,2.412842 -6.71228,6.428833 -0.669068,15.976685 6.910644,22.075256 z"
       id="path2-4"
       style="display:inline;fill:#019a88;fill-opacity:0.984314;stroke:url(#linearGradient4);stroke-width:0.999973;stroke-dasharray:none" />
  </g>
  <path
     style="fill:#019a88;fill-opacity:0.984064;stroke:url(#linearGradient5);stroke-width:1.554;stroke-dasharray:none"
     d="m 181.15746,91.196202 v 1.11e-4 c -2.59936,-2.023164 -6.15275,-3.722543 -10.27295,-5.135611 l -0.6057,-0.213614 c -20.91135,-7.137204 -47.17014,-7.962235 -47.17014,-7.962235 0,0 -30.281011,-1.722311 -58.527648,0.24338 8.983737,-0.460563 37.255798,-0.375604 65.018058,15.872541 32.77868,19.184106 -0.58171,30.714136 -22.81911,28.643896 28.25455,3.02462 59.75932,1.80288 74.1578,-14.02357 6.54064,-7.18933 5.73519,-12.663169 0.94476,-16.820569"
     id="path5" />
  <g
     fill-rule="nonzero"
     transform="matrix(0.35295519,0,0,0.45132528,35.9662,36.659048)"
     id="g4">
    <path
       d="m 64.6,237.9 c 2.4,-2.4 5.7,-3.8 9.2,-3.8 h 317.4 c 5.8,0 8.7,7 4.6,11.1 l -62.7,62.7 c -2.4,2.4 -5.7,3.8 -9.2,3.8 H 6.5 c -5.8,0 -8.7,-7 -4.6,-11.1 z"
       fill="url(#b)"
       id="path2"
       style="fill:url(#b)" />
    <path
       d="M 64.6,3.8 C 67.1,1.4 70.4,0 73.8,0 h 317.4 c 5.8,0 8.7,7 4.6,11.1 l -62.7,62.7 c -2.4,2.4 -5.7,3.8 -9.2,3.8 H 6.5 c -5.8,0 -8.7,-7 -4.6,-11.1 z"
       fill="url(#c)"
       id="path3"
       style="fill:url(#c)" />
    <path
       d="m 333.1,120.1 c -2.4,-2.4 -5.7,-3.8 -9.2,-3.8 H 6.5 c -5.8,0 -8.7,7 -4.6,11.1 l 62.7,62.7 c 2.4,2.4 5.7,3.8 9.2,3.8 h 317.4 c 5.8,0 8.7,-7 4.6,-11.1 z"
       fill="url(#d)"
       id="path4"
       style="fill:url(#d)" />
  </g>
  <path
     style="fill:#019a88;fill-opacity:0.984064;stroke:url(#linearGradient9);stroke-width:1.58747;stroke-dasharray:none"
     d="m 181.30717,91.022647 c 8.05395,4.546367 10.90461,10.947383 2.43689,19.889983 C 156.70835,139.46415 73.96217,122.32137 50.48994,115.68837 27.017666,109.05537 1.5893183,94.427693 21.883121,85.141467 24.422879,83.979344 27.85146,83.009496 31.905827,82.201798 23.31257,83.791486 16.084551,85.976644 11.465055,88.957752 -11.4061,103.71774 17.251766,125.08468 43.705391,135.62755 70.158892,146.17044 163.41479,173.4183 193.8843,128.03668 206.50791,109.23493 196.62926,97.603786 180.54976,90.418927"
     id="path1" />
</svg>
