<?xml version="1.0" encoding="UTF-8" standalone="no"?>
<svg clip-rule="evenodd" fill-rule="evenodd" stroke-linejoin="round" stroke-miterlimit="2" viewBox="0 0 200 200" version="1.1" id="svg4" sodipodi:docname="s-sol.svg" width="200" height="200" inkscape:version="1.3.2 (091e20e, 2023-11-25)"
  xmlns:inkscape="http://www.inkscape.org/namespaces/inkscape"
  xmlns:sodipodi="http://sodipodi.sourceforge.net/DTD/sodipodi-0.dtd"
  xmlns:xlink="http://www.w3.org/1999/xlink"
  xmlns="http://www.w3.org/2000/svg"
  xmlns:svg="http://www.w3.org/2000/svg">
  <defs id="defs4">
    <linearGradient inkscape:collect="always" xlink:href="#swatch5" id="linearGradient9" gradientUnits="userSpaceOnUse" x1="5.0000057" y1="52.502884" x2="94.999596" y2="52.502884" gradientTransform="matrix(2.181083,0,0,1.4643684,-8.5967437,42.313925)" />
    <linearGradient id="swatch5" inkscape:swatch="solid">
      <stop style="stop-color:#000000;stop-opacity:1;" offset="0" id="stop5" />
    </linearGradient>
    <linearGradient inkscape:collect="always" xlink:href="#swatch5" id="linearGradient8" x1="5.0000057" y1="52.502884" x2="94.999596" y2="52.502884" gradientUnits="userSpaceOnUse" />
    <linearGradient inkscape:collect="always" xlink:href="#swatch5" id="linearGradient4" gradientUnits="userSpaceOnUse" x1="5.0000057" y1="52.502884" x2="94.999596" y2="52.502884" />
    <linearGradient inkscape:collect="always" xlink:href="#swatch5" id="linearGradient5" gradientUnits="userSpaceOnUse" gradientTransform="matrix(2.0869161,0,0,1.4464514,0.12941557,44.964455)" x1="5.0000057" y1="52.502884" x2="94.999596" y2="52.502884" />
  </defs>
  <sodipodi:namedview id="namedview4" pagecolor="#ffffff" bordercolor="#000000" borderopacity="0.25" inkscape:showpageshadow="2" inkscape:pageopacity="0.0" inkscape:pagecheckerboard="0" inkscape:deskcolor="#d1d1d1" inkscape:zoom="2.1733276" inkscape:cx="41.18109" inkscape:cy="153.45133" inkscape:window-width="2048" inkscape:window-height="1124" inkscape:window-x="0" inkscape:window-y="28" inkscape:window-maximized="0" inkscape:current-layer="svg4" />
  <linearGradient id="a">
    <stop offset="0" stop-color="#00ffa3" id="stop1" />
    <stop offset="1" stop-color="#dc1fff" id="stop2" />
  </linearGradient>
  <linearGradient id="b" gradientTransform="matrix(-219.666,420.749,-420.749,-219.666,360.879,-37.4553)" gradientUnits="userSpaceOnUse" x1="0" x2="1" xlink:href="#a" y1="0" y2="0" />
  <linearGradient id="c" gradientTransform="matrix(-219.666,420.749,-420.749,-219.666,264.829,-87.6014)" gradientUnits="userSpaceOnUse" x1="0" x2="1" xlink:href="#a" y1="0" y2="0" />
  <linearGradient id="d" gradientTransform="matrix(-219.666,420.749,-420.749,-219.666,312.548,-62.688)" gradientUnits="userSpaceOnUse" x1="0" x2="1" xlink:href="#a" y1="0" y2="0" />
  <g id="SvgjsG1240" transform="matrix(2.4520567,0,0,1.4395301,-17.368189,44.11601)" fill="#000000" class="fill-primary" style="fill:#019a4f;fill-opacity:0.984064;stroke:url(#linearGradient8);stroke-width:0.999973;stroke-dasharray:none">
    <path d="m 23.667175,48.459167 c -0.392395,-0.591186 -1.619323,-3.063964 2.03595,-6.926147 4.111389,-4.344116 14.407898,-9.137695 26.769775,-7.927734 0,0 5.071656,0.347473 7.352417,3.18927 C 59.396118,36.223022 58.933533,35.643066 58.43335,35.054382 46.647217,21.182617 34.644714,21.110046 30.830749,21.503296 c -0.415222,0.05811 -0.829284,0.119995 -1.241943,0.185852 -3.144653,0.501892 -6.195923,1.234192 -8.901916,2.281921 -1.589966,0.662903 -2.934449,1.458985 -3.930359,2.412842 -6.71228,6.428833 -0.669068,15.976685 6.910644,22.075256 z" id="path2-4" style="display:inline;fill:#019a88;fill-opacity:0.984314;stroke:url(#linearGradient4);stroke-width:0.999973;stroke-dasharray:none" />
  </g>
  <path style="fill:#019a88;fill-opacity:0.984064;stroke:url(#linearGradient5);stroke-width:1.73738;stroke-dasharray:none" d="m 180.15247,90.214858 v 1.39e-4 c -2.59543,-2.532647 -6.14345,-4.659971 -10.25742,-6.428885 l -0.60478,-0.267407 c -20.87973,-8.934528 -47.0988,-9.967323 -47.0988,-9.967323 0,0 -30.235217,-2.156031 -58.439135,0.304669 8.97015,-0.576544 37.199455,-0.47019 64.919725,19.86964 32.72911,24.015139 -0.58083,38.448709 -22.7846,35.857139 28.21182,3.78629 59.66894,2.25689 74.04565,-17.55505 6.53075,-8.99979 5.72652,-15.852069 0.94333,-21.056408" id="path5" />
  <g fill-rule="nonzero" transform="matrix(0.35295519,0,0,0.45132528,29.984589,36.659048)" id="g4">
    <path d="m 64.6,237.9 c 2.4,-2.4 5.7,-3.8 9.2,-3.8 h 317.4 c 5.8,0 8.7,7 4.6,11.1 l -62.7,62.7 c -2.4,2.4 -5.7,3.8 -9.2,3.8 H 6.5 c -5.8,0 -8.7,-7 -4.6,-11.1 z" fill="url(#b)" id="path2" style="fill:url(#b)" />
    <path d="M 64.6,3.8 C 67.1,1.4 70.4,0 73.8,0 h 317.4 c 5.8,0 8.7,7 4.6,11.1 l -62.7,62.7 c -2.4,2.4 -5.7,3.8 -9.2,3.8 H 6.5 c -5.8,0 -8.7,-7 -4.6,-11.1 z" fill="url(#c)" id="path3" style="fill:url(#c)" />
    <path d="m 333.1,120.1 c -2.4,-2.4 -5.7,-3.8 -9.2,-3.8 H 6.5 c -5.8,0 -8.7,7 -4.6,11.1 l 62.7,62.7 c 2.4,2.4 5.7,3.8 9.2,3.8 h 317.4 c 5.8,0 8.7,-7 4.6,-11.1 z" fill="url(#d)" id="path4" style="fill:url(#d)" />
  </g>
  <path style="fill:#019a88;fill-opacity:0.984064;stroke:url(#linearGradient9);stroke-width:1.7871;stroke-dasharray:none" d="m 180.30604,88.89072 c 8.0458,5.767563 10.89358,13.88795 2.43443,25.23261 C 155.73211,150.34405 73.069654,128.59656 49.621172,120.18188 26.172647,111.7672 0.77002747,93.210393 21.043297,81.429802 c 2.537188,-1.47428 5.962301,-2.704638 10.012565,-3.729291 -8.584562,2.016693 -15.805268,4.788804 -20.42009,8.570665 -22.848014,18.724654 5.780856,45.830944 32.207716,59.205724 26.426736,13.37481 119.588282,47.94169 150.026962,-9.62984 12.61083,-23.85207 2.74218,-38.607449 -13.32105,-47.722224" id="path1" />
</svg>
